<svg xmlns="http://www.w3.org/2000/svg" version="1.1" xmlns:xlink="http://www.w3.org/1999/xlink" xmlns:svgjs="http://svgjs.dev/svgjs" width="100%" height="100%" viewBox="0 0 1000 600"><rect width="1000" height="600" x="0" y="0" fill="#211d4f"/><g><circle r="166.66666666666666" cx="509.45475260416663" cy="531.6769850725258" fill="#f7c5cc" transform="matrix(0.3646567587923607,0,0,0.3646567587923606,0,106.12039183378486)"/><path d="M554.8898204185948 560.5678951313295L572.5368781971524 567.1855417982886Q567.9106529808986 579.5323547926613 559.3015848632342 588.4784326942912Q550.6925167455698 597.4245105959211 539.1116350783914 602.0507358121749Q527.5307534112129 606.6769610284288 513.8665385340659 606.6769610284288L513.8665385340659 606.6769610284288Q493.1251181936431 606.6769610284288 478.0209524213707 597.5164223551844Q462.9167866490983 588.3558836819401 454.64472831539945 571.597306242928Q446.37266998170054 554.8387288039157 446.37266998170054 531.6769654695588L446.37266998170054 531.6769654695588Q446.37266998170054 508.515202135202 454.64472831539945 491.7566246961899Q462.9167866490983 474.99804725717763 478.0209524213707 465.83750858393336Q493.1251181936431 456.676969910689 513.4069797377492 456.676969910689L513.4069797377492 456.676969910689Q527.5307534112129 456.676969910689 538.5601645228114 460.53726379974853Q549.5895756344099 464.397557688808 557.4327124248799 471.99559645457583Q565.2452119622623 479.62427247343146 569.9020744316039 490.65368358502997L569.9020744316039 490.65368358502997L552.4694774246607 498.8031929063778Q547.5981541837047 486.24191914039056 538.4682527635481 479.7161842326948Q529.3077140903038 473.2210865780868 514.7550188736113 473.2210865780868L514.7550188736113 473.2210865780868Q499.9572256322166 473.2210865780868 488.71335374900366 480.1757430290114Q477.4694818657908 487.13039947993605 471.18884498279715 500.12059478915205Q464.8775708467158 513.1414273514558 464.8775708467158 531.6769654695588L464.8775708467158 531.6769654695588Q464.8775708467158 549.9980428160475 470.8518351988317 563.1107871376146Q476.7954622978598 576.2235314591818 487.8248734094583 583.1781879101063Q498.8542845210568 590.132844361031 513.8665385340659 590.132844361031L513.8665385340659 590.132844361031Q528.4192337507584 590.132844361031 539.2341840907425 582.7492663668775Q550.0491344307266 575.3656883727241 554.8898204185948 560.5678951313295L554.8898204185948 560.5678951313295Z " fill="#03e9ca" transform="matrix(0.3646567587923607,0,0,0.3646567587923606,0,106.12039183378486)"/><path d="M859.1732373482066 564.3064678990213L875.3894527749189 570.3875486840385Q871.1383268557635 581.7332688523807 863.2272912048846 589.9539891728667Q855.3162555540059 598.1747094933528 844.674364180226 602.4258354125083Q834.0324728064461 606.6769613316637 821.476167111457 606.6769613316637L821.476167111457 606.6769613316637Q802.4164833547136 606.6769613316637 788.5369795259476 598.2591689487002Q774.6574756971817 589.8413765657367 767.0561247159103 574.4416025407165Q759.4547737346388 559.0418285156964 759.4547737346388 537.7580457681364L759.4547737346388 537.7580457681364Q759.4547737346388 516.4742630205765 767.0561247159103 501.0744889955563Q774.6574756971817 485.6747149705361 788.5369795259476 477.2569225875726Q802.4164833547136 468.8391302046091 821.0538698347196 468.8391302046091L821.0538698347196 468.8391302046091Q834.0324728064461 468.8391302046091 844.1676074481412 472.38642732920243Q854.3027420898364 475.9337244537958 861.509948946153 482.91570609585244Q868.6890026506871 489.9258408896916 872.9682817216251 500.0609755313868L872.9682817216251 500.0609755313868L856.9491383573902 507.5497139055283Q852.4727872239748 496.00692167470874 844.0831479927938 490.01030034503907Q835.6653556098303 484.0418321671519 822.2926085131492 484.0418321671519L822.2926085131492 484.0418321671519Q808.694636202208 484.0418321671519 798.3624294980355 490.4325976217764Q788.0302227938628 496.8233630764008 782.258826678453 508.7602994321752Q776.4592774112608 520.725388939732 776.4592774112608 537.7580457681364L776.4592774112608 537.7580457681364Q776.4592774112608 554.5936305340634 781.9491420088457 566.6431794969678Q787.4108534546481 578.6927284598721 797.5459880963433 585.0834939144966Q807.6811227380385 591.474259369121 821.476167111457 591.474259369121L821.476167111457 591.474259369121Q834.8489142081381 591.474259369121 844.7869767873559 584.6893497895417Q854.7250393665738 577.9044402099624 859.1732373482066 564.3064678990213L859.1732373482066 564.3064678990213ZM945.5189538650932 501.27156105803374L945.5189538650932 501.27156105803374Q959.9052144259439 501.27156105803374 970.9694030764612 507.5497139055283Q982.005438575196 513.8278667530228 988.2835914226905 525.7084968052321Q994.5898974219675 537.5609737056591 994.5898974219675 553.9742611948487L994.5898974219675 553.9742611948487Q994.5898974219675 570.3875486840385 988.2835914226905 582.2400255844653Q982.005438575196 594.1206556366748 970.9694030764612 600.3988084841692Q959.9052144259439 606.6769613316637 945.5189538650932 606.6769613316637L945.5189538650932 606.6769613316637Q931.3297653667199 606.6769613316637 920.1811172608552 600.3988084841692Q909.0324691549905 594.1206556366748 902.754316307496 582.2400255844653Q896.4761634600014 570.3875486840385 896.4761634600014 553.9742611948487L896.4761634600014 553.9742611948487Q896.4761634600014 537.5609737056591 902.754316307496 525.7084968052321Q909.0324691549905 513.8278667530228 920.1811172608552 507.5497139055283Q931.3297653667199 501.27156105803374 945.5189538650932 501.27156105803374ZM945.5189538650932 515.2636774939297L945.5189538650932 515.2636774939297Q935.1867471609206 515.2636774939297 927.8950808492566 519.9089475380399Q920.6034145375926 524.5823707339327 916.6338201362619 533.1972351793736Q912.6923788867138 541.8120996248146 912.6923788867138 553.9742611948487L912.6923788867138 553.9742611948487Q912.6923788867138 565.9393507024056 916.6338201362619 574.638674603194Q920.6034145375926 583.3661516557648 927.8950808492566 588.0395748516576Q935.1867471609206 592.6848448957679 945.5189538650932 592.6848448957679L945.5189538650932 592.6848448957679Q955.8511605692657 592.6848448957679 963.1709800327124 588.0395748516576Q970.4626463443764 583.3661516557648 974.4040875939246 574.638674603194Q978.3736819952552 565.9393507024056 978.3736819952552 553.9742611948487L978.3736819952552 553.9742611948487Q978.3736819952552 541.8120996248146 974.4040875939246 533.1972351793736Q970.4626463443764 524.5823707339327 963.1709800327124 519.9089475380399Q955.8511605692657 515.2636774939297 945.5189538650932 515.2636774939297ZM1024.3759320078384 456.67696863457485L1040.5921474345505 456.67696863457485L1040.5921474345505 578.9179536741319Q1040.5921474345505 586.6037641107508 1043.4356157645818 589.559845047912Q1046.2790840946132 592.4877728332905 1052.5572369421075 592.4877728332905L1052.5572369421075 592.4877728332905Q1056.6112907987854 592.4877728332905 1059.2295339145567 591.8684034940758Q1061.8759301821106 591.2771873066436 1066.3241281637434 589.6443045032594L1066.3241281637434 589.6443045032594L1063.705885047972 603.8334930016326Q1060.468272592986 605.2693037425395 1056.6112907987854 605.9731325371016Q1052.7543090045847 606.6769613316637 1048.7002551479068 606.6769613316637L1048.7002551479068 606.6769613316637Q1036.3410215153951 606.6769613316637 1030.3444001857256 599.9765112074319Q1024.3759320078384 593.3042142349826 1024.3759320078384 579.5091698615641L1024.3759320078384 579.5091698615641L1024.3759320078384 456.67696863457485ZM1129.1619629422537 501.27156105803374L1129.1619629422537 501.27156105803374Q1143.5763766548869 501.27156105803374 1154.6124121536218 507.5497139055283Q1165.6484476523565 513.8278667530228 1171.9547536516334 525.7084968052321Q1178.2329064991281 537.5609737056591 1178.2329064991281 553.9742611948487L1178.2329064991281 553.9742611948487Q1178.2329064991281 570.3875486840385 1171.9547536516334 582.2400255844653Q1165.6484476523565 594.1206556366748 1154.6124121536218 600.3988084841692Q1143.5763766548869 606.6769613316637 1129.1619629422537 606.6769613316637L1129.1619629422537 606.6769613316637Q1114.9727744438806 606.6769613316637 1103.8241263380157 600.3988084841692Q1092.675478232151 594.1206556366748 1086.3973253846566 582.2400255844653Q1080.1191725371618 570.3875486840385 1080.1191725371618 553.9742611948487L1080.1191725371618 553.9742611948487Q1080.1191725371618 537.5609737056591 1086.3973253846566 525.7084968052321Q1092.675478232151 513.8278667530228 1103.8241263380157 507.5497139055283Q1114.9727744438806 501.27156105803374 1129.1619629422537 501.27156105803374ZM1129.1619629422537 515.2636774939297L1129.1619629422537 515.2636774939297Q1118.8297562380812 515.2636774939297 1111.538089926417 519.9089475380399Q1104.246423614753 524.5823707339327 1100.2768292134224 533.1972351793736Q1096.3353879638744 541.8120996248146 1096.3353879638744 553.9742611948487L1096.3353879638744 553.9742611948487Q1096.3353879638744 565.9393507024056 1100.2768292134224 574.638674603194Q1104.246423614753 583.3661516557648 1111.538089926417 588.0395748516576Q1118.8297562380812 592.6848448957679 1129.1619629422537 592.6848448957679L1129.1619629422537 592.6848448957679Q1139.5223227982087 592.6848448957679 1146.8139891098729 588.0395748516576Q1154.105655421537 583.3661516557648 1158.047096671085 574.638674603194Q1162.0166910724156 565.9393507024056 1162.0166910724156 553.9742611948487L1162.0166910724156 553.9742611948487Q1162.0166910724156 541.8120996248146 1158.047096671085 533.1972351793736Q1154.105655421537 524.5823707339327 1146.8139891098729 519.9089475380399Q1139.5223227982087 515.2636774939297 1129.1619629422537 515.2636774939297ZM1225.0515979134034 604.6499344033248L1208.8353824866908 604.6499344033248L1208.8353824866908 503.29858798637275L1222.0110575208946 503.29858798637275L1224.235156511711 519.9089475380399Q1228.4862824308666 510.5902542980368 1236.7070027513528 505.9449842539265Q1244.927723071839 501.27156105803374 1256.6675873651357 501.27156105803374L1256.6675873651357 501.27156105803374Q1259.3139836326895 501.27156105803374 1262.4389834805456 501.6657051829886Q1265.5921364801839 502.08800245972583 1267.8162354710005 503.29858798637275L1267.8162354710005 503.29858798637275L1264.9727671409694 518.1071458239608Q1262.7486681501528 517.2907044222686 1260.1304250343815 516.8684071455314Q1257.484028766828 516.4742630205765 1252.6135335084577 516.4742630205765L1252.6135335084577 516.4742630205765Q1246.3353806609632 516.4742630205765 1239.9446152063388 520.1341727522997Q1233.553849751714 523.7659293322406 1229.3027238325587 531.1702082510346Q1225.0515979134034 538.5744871698286 1225.0515979134034 549.9202073381707L1225.0515979134034 549.9202073381707L1225.0515979134034 604.6499344033248ZM1418.435597507304 470.86615713294816L1470.3218562424267 604.6499344033248L1453.092127351545 604.6499344033248L1438.9029388531721 567.5440803540073L1378.289203065478 567.5440803540073L1364.1000145671048 604.6499344033248L1347.0673577387006 604.6499344033248L1399.1788416880831 470.86615713294816L1418.435597507304 470.86615713294816ZM1408.4975349280862 486.4630032204458L1384.1732117880179 552.3413783914646L1433.0189301306323 552.3413783914646L1408.4975349280862 486.4630032204458ZM1531.1326640925981 606.6769613316637L1531.1326640925981 606.6769613316637Q1521.391673575858 606.6769613316637 1512.776809130417 603.0170515999405Q1504.1619446849759 599.3852950199997 1498.8128458463034 591.1645746995137Q1493.4355938558488 582.9720075308101 1493.4355938558488 569.7963324966063L1493.4355938558488 569.7963324966063L1493.4355938558488 503.29858798637275L1509.6518092825609 503.29858798637275L1509.6518092825609 565.5170534256683Q1509.6518092825609 580.944980602471 1516.32410625501 586.7163767178807Q1523.0245563792419 592.4877728332905 1535.186717949276 592.4877728332905L1535.186717949276 592.4877728332905Q1540.8736546093387 592.4877728332905 1546.335366055141 590.5733585120814Q1551.7970775009435 588.6307910390899 1556.160816027229 584.4922777270643Q1560.5245545535145 580.3256112632563 1563.058338213938 573.8503863532843Q1565.592121874362 567.3470082915298 1565.592121874362 558.4224591764817L1565.592121874362 558.4224591764817L1565.592121874362 503.29858798637275L1581.808337301074 503.29858798637275L1581.808337301074 604.6499344033248L1567.6191488027007 604.6499344033248L1566.6056353385316 589.2501603783046Q1561.3409959552064 598.3717815558302 1552.3038342330283 602.5102948678557Q1543.2948256626323 606.6769613316637 1531.1326640925981 606.6769613316637ZM1627.2193711262253 478.9742648463043L1643.4355865529374 474.5260668646714L1643.4355865529374 576.6657015315329Q1643.4355865529374 584.182593057457 1647.686712472093 587.8143496373978Q1651.9378383912485 591.474259369121 1658.6382885154803 591.474259369121L1658.6382885154803 591.474259369121Q1664.5222972380197 591.474259369121 1668.7734231571753 589.4472324407819Q1673.024549076331 587.4202055124429 1676.4592335937941 583.9855209949795L1676.4592335937941 583.9855209949795L1682.1461702538568 597.5553401541381Q1677.4727470579637 601.8064660732936 1671.110134755122 604.2557902783699Q1664.7193693004974 606.6769613316637 1656.414189524664 606.6769613316637L1656.414189524664 606.6769613316637Q1648.7002259362625 606.6769613316637 1641.9997758120307 603.9461056087625Q1635.327478839581 601.2152498858613 1631.357884438251 595.2186285561917Q1627.4164431887025 589.2501603783046 1627.2193711262253 579.5091698615641L1627.2193711262253 579.5091698615641L1627.2193711262253 478.9742648463043ZM1606.9491018428348 503.29858798637275L1680.3162153879953 503.29858798637275L1680.3162153879953 517.2907044222686L1606.9491018428348 517.2907044222686L1606.9491018428348 503.29858798637275ZM1746.3916626214914 501.27156105803374L1746.3916626214914 501.27156105803374Q1760.8060763341246 501.27156105803374 1771.8421118328592 507.5497139055283Q1782.878147331594 513.8278667530228 1789.1844533308708 525.7084968052321Q1795.4626061783651 537.5609737056591 1795.4626061783651 553.9742611948487L1795.4626061783651 553.9742611948487Q1795.4626061783651 570.3875486840385 1789.1844533308708 582.2400255844653Q1782.878147331594 594.1206556366748 1771.8421118328592 600.3988084841692Q1760.8060763341246 606.6769613316637 1746.3916626214914 606.6769613316637L1746.3916626214914 606.6769613316637Q1732.202474123118 606.6769613316637 1721.053826017253 600.3988084841692Q1709.9051779113884 594.1206556366748 1703.627025063894 582.2400255844653Q1697.3488722163997 570.3875486840385 1697.3488722163997 553.9742611948487L1697.3488722163997 553.9742611948487Q1697.3488722163997 537.5609737056591 1703.627025063894 525.7084968052321Q1709.9051779113884 513.8278667530228 1721.053826017253 507.5497139055283Q1732.202474123118 501.27156105803374 1746.3916626214914 501.27156105803374ZM1746.3916626214914 515.2636774939297L1746.3916626214914 515.2636774939297Q1736.0594559173187 515.2636774939297 1728.7677896056543 519.9089475380399Q1721.4761232939904 524.5823707339327 1717.5065288926598 533.1972351793736Q1713.5650876431118 541.8120996248146 1713.5650876431118 553.9742611948487L1713.5650876431118 553.9742611948487Q1713.5650876431118 565.9393507024056 1717.5065288926598 574.638674603194Q1721.4761232939904 583.3661516557648 1728.7677896056543 588.0395748516576Q1736.0594559173187 592.6848448957679 1746.3916626214914 592.6848448957679L1746.3916626214914 592.6848448957679Q1756.7520224774462 592.6848448957679 1764.0436887891105 588.0395748516576Q1771.3353551007744 583.3661516557648 1775.2767963503225 574.638674603194Q1779.246390751653 565.9393507024056 1779.246390751653 553.9742611948487L1779.246390751653 553.9742611948487Q1779.246390751653 541.8120996248146 1775.2767963503225 533.1972351793736Q1771.3353551007744 524.5823707339327 1764.0436887891105 519.9089475380399Q1756.7520224774462 515.2636774939297 1746.3916626214914 515.2636774939297ZM1842.2812975926404 604.6499344033248L1826.0650821659283 604.6499344033248L1826.0650821659283 503.29858798637275L1840.2542706643017 503.29858798637275L1841.2677841284712 519.1206592881302Q1846.7294955742736 509.7738128963447 1855.5695852339745 505.5226869771892Q1864.3815217418928 501.27156105803374 1873.700214981896 501.27156105803374L1873.700214981896 501.27156105803374Q1884.4547189628056 501.27156105803374 1893.9704842652864 506.1420563164039Q1903.4862495677667 511.01255157477414 1908.5538168886142 521.1476862164693L1908.5538168886142 521.1476862164693Q1911.8195824953827 514.2501640297601 1917.67543806614 509.88642550347464Q1923.5594467886795 505.5226869771892 1930.5695815825188 503.4112005935027Q1937.5515632245756 501.27156105803374 1943.82971607207 501.27156105803374L1943.82971607207 501.27156105803374Q1953.5707065888105 501.27156105803374 1962.3826430967288 505.3256149147118Q1971.194579604647 509.3796687713899 1976.8815162647093 517.8819206097008Q1982.5402997729893 526.4123255997943 1982.5402997729893 539.7850726964755L1982.5402997729893 539.7850726964755L1982.5402997729893 604.6499344033248L1966.3240843462768 604.6499344033248L1966.3240843462768 541.4179554998598Q1966.3240843462768 527.6229111264413 1959.45471531135 521.5418303414242Q1952.557193124641 515.460749556407 1942.4220584829454 515.460749556407L1942.4220584829454 515.460749556407Q1934.5110228320668 515.460749556407 1927.6135006453578 519.3177313506077Q1920.7159784586488 523.1747131448084 1916.5774651466231 530.6634515189498Q1912.4107986828149 538.1521898930912 1912.4107986828149 549.1037659364786L1912.4107986828149 549.1037659364786L1912.4107986828149 604.6499344033248L1896.1945832561028 604.6499344033248L1896.1945832561028 541.4179554998598Q1896.1945832561028 527.6229111264413 1889.2970610693933 521.5418303414242Q1882.4276920344669 515.460749556407 1872.2925573927714 515.460749556407L1872.2925573927714 515.460749556407Q1865.5921072685396 515.460749556407 1858.6101256264828 519.0080466810003Q1851.5999908326435 522.5553438055937 1846.9547207885335 530.269307393995Q1842.2812975926404 537.9551178306139 1842.2812975926404 550.5395766773854L1842.2812975926404 550.5395766773854L1842.2812975926404 604.6499344033248ZM2078.429934744139 567.1499362290525L2078.429934744139 539.1657033572608Q2078.429934744139 527.8199831889186 2072.3488539591217 521.6544429485541Q2066.2677731741046 515.460749556407 2055.11912506824 515.460749556407L2055.11912506824 515.460749556407Q2044.5898463015897 515.460749556407 2037.2700268381432 520.0215601451698Q2029.9783605264793 524.5823707339327 2026.543676009016 534.7175053756279L2026.543676009016 534.7175053756279L2013.3680009748123 526.6093976622717Q2017.4220548314902 515.2636774939297 2028.3736308748776 508.2535427000904Q2039.2970537664823 501.27156105803374 2055.5132691931944 501.27156105803374L2055.5132691931944 501.27156105803374Q2066.464845236582 501.27156105803374 2075.38939435163 505.01593024510447Q2084.3139434666787 508.7602994321752 2089.4659702428735 516.3616504134466Q2094.6461501708513 523.963001394718 2094.6461501708513 535.9280909022748L2094.6461501708513 535.9280909022748L2094.6461501708513 584.999034459149Q2094.6461501708513 592.2907007708131 2102.3601137592523 592.2907007708131L2102.3601137592523 592.2907007708131Q2106.188942401671 592.2907007708131 2109.848852133394 591.2771873066436L2109.848852133394 591.2771873066436L2109.032410731702 604.0305650641101Q2104.9783568750236 606.057591992449 2098.5031319650516 606.057591992449L2098.5031319650516 606.057591992449Q2092.619123242512 606.057591992449 2087.945700046619 603.8334930016326Q2083.300430002509 601.6093940108162 2080.654033734955 597.0485834220533Q2078.035790619184 592.4877728332905 2078.035790619184 585.5902506465814L2078.035790619184 585.5902506465814L2078.035790619184 583.5632237182422L2082.089844475862 584.182593057457Q2079.6405202707856 592.0936287083357 2073.756511548246 597.0485834220533Q2067.900655977489 602.003538135771 2060.5808365140424 604.3402497337174Q2053.289170202378 606.6769613316637 2046.1945759531914 606.6769613316637L2046.1945759531914 606.6769613316637Q2037.2700268381432 606.6769613316637 2029.5842164015244 603.6364209391552Q2021.870252813123 600.5958805466466 2017.3094422243603 594.4021871544996Q2012.7486316355976 588.236646914135 2012.7486316355976 579.1150257366094L2012.7486316355976 579.1150257366094Q2012.7486316355976 567.7693055682672 2020.3499826168686 560.3650266494732Q2027.95133359814 552.9607477306793 2041.5493059090813 550.3143514631255L2041.5493059090813 550.3143514631255L2081.667547199125 542.4314689640292L2081.667547199125 555.8042160607104L2049.0380442832225 562.4765130331597Q2039.0999817040051 564.5035399614987 2034.2294864456348 568.163449693222Q2029.3871443390472 571.8233594249454 2029.3871443390472 578.2985843349172L2029.3871443390472 578.2985843349172Q2029.3871443390472 584.5767371824118 2034.3420990527648 588.5463315837424Q2039.2970537664823 592.4877728332905 2048.418674944008 592.4877728332905L2048.418674944008 592.4877728332905Q2054.3026836665476 592.4877728332905 2059.6799356570027 590.9675026370362Q2065.0571876474573 589.4472324407819 2069.3083135666134 586.2940794411435Q2073.5594394857685 583.1690795932874 2076.008763690845 578.4111969420471Q2078.429934744139 573.6251611390244 2078.429934744139 567.1499362290525L2078.429934744139 567.1499362290525ZM2141.661913647604 478.9742648463043L2157.878129074316 474.5260668646714L2157.878129074316 576.6657015315329Q2157.878129074316 584.182593057457 2162.157408145254 587.8143496373978Q2166.4085340644097 591.474259369121 2173.080831036859 591.474259369121L2173.080831036859 591.474259369121Q2178.9648397593987 591.474259369121 2183.2159656785543 589.4472324407819Q2187.495244749492 587.4202055124429 2190.9299292669557 583.9855209949795L2190.9299292669557 583.9855209949795L2196.616865927018 597.5553401541381Q2191.943442731125 601.8064660732936 2185.5526772765006 604.2557902783699Q2179.161911821876 606.6769613316637 2170.8567320460425 606.6769613316637L2170.8567320460425 606.6769613316637Q2163.1709216094237 606.6769613316637 2156.470471485192 603.9461056087625Q2149.77002136096 601.2152498858613 2145.8285801114116 595.2186285561917Q2141.8871388618636 589.2501603783046 2141.661913647604 579.5091698615641L2141.661913647604 579.5091698615641L2141.661913647604 478.9742648463043ZM2121.3916443642133 503.29858798637275L2194.7869110611564 503.29858798637275L2194.7869110611564 517.2907044222686L2121.3916443642133 517.2907044222686L2121.3916443642133 503.29858798637275ZM2260.8623582946525 501.27156105803374L2260.8623582946525 501.27156105803374Q2275.248618855503 501.27156105803374 2286.3128075060204 507.5497139055283Q2297.348843004755 513.8278667530228 2303.62699585225 525.7084968052321Q2309.905148699744 537.5609737056591 2309.905148699744 553.9742611948487L2309.905148699744 553.9742611948487Q2309.905148699744 570.3875486840385 2303.62699585225 582.2400255844653Q2297.348843004755 594.1206556366748 2286.3128075060204 600.3988084841692Q2275.248618855503 606.6769613316637 2260.8623582946525 606.6769613316637L2260.8623582946525 606.6769613316637Q2246.673169796279 606.6769613316637 2235.5245216904145 600.3988084841692Q2224.37587358455 594.1206556366748 2218.097720737055 582.2400255844653Q2211.8195678895604 570.3875486840385 2211.8195678895604 553.9742611948487L2211.8195678895604 553.9742611948487Q2211.8195678895604 537.5609737056591 2218.097720737055 525.7084968052321Q2224.37587358455 513.8278667530228 2235.5245216904145 507.5497139055283Q2246.673169796279 501.27156105803374 2260.8623582946525 501.27156105803374ZM2260.8623582946525 515.2636774939297L2260.8623582946525 515.2636774939297Q2250.53015159048 515.2636774939297 2243.238485278816 519.9089475380399Q2235.9186658153694 524.5823707339327 2231.977224565821 533.1972351793736Q2228.035783316273 541.8120996248146 2228.035783316273 553.9742611948487L2228.035783316273 553.9742611948487Q2228.035783316273 565.9393507024056 2231.977224565821 574.638674603194Q2235.9186658153694 583.3661516557648 2243.238485278816 588.0395748516576Q2250.53015159048 592.6848448957679 2260.8623582946525 592.6848448957679L2260.8623582946525 592.6848448957679Q2271.194564998825 592.6848448957679 2278.486231310489 588.0395748516576Q2285.8060507739356 583.3661516557648 2289.7474920234836 574.638674603194Q2293.688933273032 565.9393507024056 2293.688933273032 553.9742611948487L2293.688933273032 553.9742611948487Q2293.688933273032 541.8120996248146 2289.7474920234836 533.1972351793736Q2285.8060507739356 524.5823707339327 2278.486231310489 519.9089475380399Q2271.194564998825 515.2636774939297 2260.8623582946525 515.2636774939297ZM2356.751993265802 604.6499344033248L2340.5357778390894 604.6499344033248L2340.5357778390894 503.29858798637275L2353.711452873293 503.29858798637275L2355.93555186411 519.9089475380399Q2360.186677783265 510.5902542980368 2368.4073981037513 505.9449842539265Q2376.599965272455 501.27156105803374 2388.3679827175342 501.27156105803374L2388.3679827175342 501.27156105803374Q2390.9862258333055 501.27156105803374 2394.139378832944 501.6657051829886Q2397.2925318325824 502.08800245972583 2399.5166308233993 503.29858798637275L2399.5166308233993 503.29858798637275L2396.673162493368 518.1071458239608Q2394.449063502552 517.2907044222686 2391.802667234998 516.8684071455314Q2389.1844241192266 516.4742630205765 2384.3139288608563 516.4742630205765L2384.3139288608563 516.4742630205765Q2378.035776013362 516.4742630205765 2371.6450105587373 520.1341727522997Q2365.2542451041127 523.7659293322406 2361.003119184957 531.1702082510346Q2356.751993265802 538.5744871698286 2356.751993265802 549.9202073381707L2356.751993265802 549.9202073381707L2356.751993265802 604.6499344033248Z " fill="#ffca6a" transform="matrix(0.3646567587923607,0,0,0.3646567587923606,0,106.12039183378486)"/></g></svg>